<?xml version="1.0" encoding="UTF-8" standalone="no"?>
<!DOCTYPE svg PUBLIC "-//W3C//DTD SVG 1.1//EN"
 "http://www.w3.org/Graphics/SVG/1.1/DTD/svg11.dtd">
<!-- Generated by graphviz version 2.40.1 (20161225.0304)
 -->
<!-- Title: %3 Pages: 1 -->
<svg width="334pt" height="474pt"
 viewBox="0.00 0.00 333.50 474.00" xmlns="http://www.w3.org/2000/svg" xmlns:xlink="http://www.w3.org/1999/xlink">
<g id="graph0" class="graph" transform="scale(1 1) rotate(0) translate(4 470)">
<title>%3</title>
<polygon fill="#ffffff" stroke="transparent" points="-4,4 -4,-470 329.5,-470 329.5,4 -4,4"/>
<!-- A -->
<g id="node1" class="node">
<title>A</title>
<ellipse fill="none" stroke="#000000" cx="192" cy="-448" rx="27" ry="18"/>
<text text-anchor="middle" x="192" y="-443.8" font-family="Times,serif" font-size="14.00" fill="#000000">A</text>
</g>
<!-- A&#45;&gt;A -->
<g id="edge1" class="edge">
<title>A&#45;&gt;A</title>
<path fill="none" stroke="#000000" d="M216.5325,-455.752C227.5078,-456.4902 237,-453.9063 237,-448 237,-444.0317 232.7151,-441.5632 226.5743,-440.5944"/>
<polygon fill="#000000" stroke="#000000" points="226.6472,-437.0949 216.5325,-440.248 226.4059,-444.0908 226.6472,-437.0949"/>
<text text-anchor="middle" x="245.75" y="-443.8" font-family="Times,serif" font-size="14.00" fill="#000000">0.3</text>
</g>
<!-- B -->
<g id="node2" class="node">
<title>B</title>
<ellipse fill="none" stroke="#000000" cx="102" cy="-362" rx="27" ry="18"/>
<text text-anchor="middle" x="102" y="-357.8" font-family="Times,serif" font-size="14.00" fill="#000000">B</text>
</g>
<!-- A&#45;&gt;B -->
<g id="edge2" class="edge">
<title>A&#45;&gt;B</title>
<path fill="none" stroke="#000000" d="M176.3232,-433.0199C162.1273,-419.4549 141.0354,-399.3005 124.9432,-383.9235"/>
<polygon fill="#000000" stroke="#000000" points="127.1451,-381.1865 117.4972,-376.8084 122.3091,-386.2475 127.1451,-381.1865"/>
<text text-anchor="middle" x="160.75" y="-400.8" font-family="Times,serif" font-size="14.00" fill="#000000">0.7</text>
</g>
<!-- B&#45;&gt;B -->
<g id="edge3" class="edge">
<title>B&#45;&gt;B</title>
<path fill="none" stroke="#000000" d="M126.5325,-369.752C137.5078,-370.4902 147,-367.9063 147,-362 147,-358.0317 142.7151,-355.5632 136.5743,-354.5944"/>
<polygon fill="#000000" stroke="#000000" points="136.6472,-351.0949 126.5325,-354.248 136.4059,-358.0908 136.6472,-351.0949"/>
<text text-anchor="middle" x="155.75" y="-357.8" font-family="Times,serif" font-size="14.00" fill="#000000">0.2</text>
</g>
<!-- C -->
<g id="node3" class="node">
<title>C</title>
<ellipse fill="none" stroke="#000000" cx="27" cy="-276" rx="27" ry="18"/>
<text text-anchor="middle" x="27" y="-271.8" font-family="Times,serif" font-size="14.00" fill="#000000">C</text>
</g>
<!-- B&#45;&gt;C -->
<g id="edge4" class="edge">
<title>B&#45;&gt;C</title>
<path fill="none" stroke="#000000" d="M77.8356,-353.8882C64.3178,-348.1458 48.2702,-339.1071 38.5,-326 33.8155,-319.7155 30.9927,-311.8434 29.3052,-304.2178"/>
<polygon fill="#000000" stroke="#000000" points="32.7241,-303.4393 27.6396,-294.1442 25.8179,-304.5812 32.7241,-303.4393"/>
<text text-anchor="middle" x="47.75" y="-314.8" font-family="Times,serif" font-size="14.00" fill="#000000">0.4</text>
</g>
<!-- D -->
<g id="node4" class="node">
<title>D</title>
<ellipse fill="none" stroke="#000000" cx="134" cy="-276" rx="27" ry="18"/>
<text text-anchor="middle" x="134" y="-271.8" font-family="Times,serif" font-size="14.00" fill="#000000">D</text>
</g>
<!-- B&#45;&gt;D -->
<g id="edge5" class="edge">
<title>B&#45;&gt;D</title>
<path fill="none" stroke="#000000" d="M108.6304,-344.1807C113.036,-332.3407 118.905,-316.5679 123.8883,-303.1752"/>
<polygon fill="#000000" stroke="#000000" points="127.2804,-304.095 127.4876,-293.5022 120.7199,-301.6538 127.2804,-304.095"/>
<text text-anchor="middle" x="127.75" y="-314.8" font-family="Times,serif" font-size="14.00" fill="#000000">0.4</text>
</g>
<!-- C&#45;&gt;B -->
<g id="edge7" class="edge">
<title>C&#45;&gt;B</title>
<path fill="none" stroke="#000000" d="M40.6689,-291.6737C52.0614,-304.7371 68.4644,-323.5459 81.4408,-338.4255"/>
<polygon fill="#000000" stroke="#000000" points="79.0334,-340.9901 88.2438,-346.2263 84.309,-336.3892 79.0334,-340.9901"/>
<text text-anchor="middle" x="76.75" y="-314.8" font-family="Times,serif" font-size="14.00" fill="#000000">0.5</text>
</g>
<!-- C&#45;&gt;C -->
<g id="edge6" class="edge">
<title>C&#45;&gt;C</title>
<path fill="none" stroke="#000000" d="M51.5325,-283.752C62.5078,-284.4902 72,-281.9063 72,-276 72,-272.0317 67.7151,-269.5632 61.5743,-268.5944"/>
<polygon fill="#000000" stroke="#000000" points="61.6472,-265.0949 51.5325,-268.248 61.4059,-272.0908 61.6472,-265.0949"/>
<text text-anchor="middle" x="80.75" y="-271.8" font-family="Times,serif" font-size="14.00" fill="#000000">0.5</text>
</g>
<!-- D&#45;&gt;D -->
<g id="edge8" class="edge">
<title>D&#45;&gt;D</title>
<path fill="none" stroke="#000000" d="M158.5325,-283.752C169.5078,-284.4902 179,-281.9063 179,-276 179,-272.0317 174.7151,-269.5632 168.5743,-268.5944"/>
<polygon fill="#000000" stroke="#000000" points="168.6472,-265.0949 158.5325,-268.248 168.4059,-272.0908 168.6472,-265.0949"/>
<text text-anchor="middle" x="187.75" y="-271.8" font-family="Times,serif" font-size="14.00" fill="#000000">0.1</text>
</g>
<!-- E -->
<g id="node5" class="node">
<title>E</title>
<ellipse fill="none" stroke="#000000" cx="173" cy="-190" rx="27" ry="18"/>
<text text-anchor="middle" x="173" y="-185.8" font-family="Times,serif" font-size="14.00" fill="#000000">E</text>
</g>
<!-- D&#45;&gt;E -->
<g id="edge9" class="edge">
<title>D&#45;&gt;E</title>
<path fill="none" stroke="#000000" d="M131.2993,-257.6786C130.6411,-247.8805 131.1296,-235.842 135.5,-226 138.0341,-220.2933 141.9375,-215.0416 146.285,-210.416"/>
<polygon fill="#000000" stroke="#000000" points="148.9983,-212.6672 153.8575,-203.2524 144.1877,-207.5821 148.9983,-212.6672"/>
<text text-anchor="middle" x="143.75" y="-228.8" font-family="Times,serif" font-size="14.00" fill="#000000">0.3</text>
</g>
<!-- F -->
<g id="node6" class="node">
<title>F</title>
<ellipse fill="none" stroke="#000000" cx="117" cy="-18" rx="27" ry="18"/>
<text text-anchor="middle" x="117" y="-13.8" font-family="Times,serif" font-size="14.00" fill="#000000">F</text>
</g>
<!-- D&#45;&gt;F -->
<g id="edge10" class="edge">
<title>D&#45;&gt;F</title>
<path fill="none" stroke="#000000" d="M113.2691,-264.2887C104.0425,-258.1345 93.7588,-249.8221 87,-240 64.4004,-207.1573 67.226,-193.4537 61.5,-154 55.7757,-114.5585 86.0923,-55.6957 87,-54 89.3709,-49.5709 92.3436,-45.1839 95.4897,-41.0764"/>
<polygon fill="#000000" stroke="#000000" points="98.3935,-43.0563 102.0539,-33.1138 92.9923,-38.6035 98.3935,-43.0563"/>
<text text-anchor="middle" x="70.75" y="-142.8" font-family="Times,serif" font-size="14.00" fill="#000000">0.6</text>
</g>
<!-- E&#45;&gt;D -->
<g id="edge12" class="edge">
<title>E&#45;&gt;D</title>
<path fill="none" stroke="#000000" d="M166.4118,-207.7784C162.7095,-217.4174 157.8651,-229.4772 153,-240 151.5014,-243.2414 149.8541,-246.6058 148.1753,-249.9184"/>
<polygon fill="#000000" stroke="#000000" points="144.975,-248.486 143.4574,-258.9716 151.1827,-251.721 144.975,-248.486"/>
<text text-anchor="middle" x="166.75" y="-228.8" font-family="Times,serif" font-size="14.00" fill="#000000">0.1</text>
</g>
<!-- E&#45;&gt;E -->
<g id="edge11" class="edge">
<title>E&#45;&gt;E</title>
<path fill="none" stroke="#000000" d="M197.5325,-197.752C208.5078,-198.4902 218,-195.9063 218,-190 218,-186.0317 213.7151,-183.5632 207.5743,-182.5944"/>
<polygon fill="#000000" stroke="#000000" points="207.6472,-179.0949 197.5325,-182.248 207.4059,-186.0908 207.6472,-179.0949"/>
<text text-anchor="middle" x="226.75" y="-185.8" font-family="Times,serif" font-size="14.00" fill="#000000">0.2</text>
</g>
<!-- G -->
<g id="node7" class="node">
<title>G</title>
<ellipse fill="none" stroke="#000000" cx="156" cy="-104" rx="27" ry="18"/>
<text text-anchor="middle" x="156" y="-99.8" font-family="Times,serif" font-size="14.00" fill="#000000">G</text>
</g>
<!-- E&#45;&gt;G -->
<g id="edge13" class="edge">
<title>E&#45;&gt;G</title>
<path fill="none" stroke="#000000" d="M157.9087,-174.841C152.9582,-168.8579 148.0704,-161.5992 145.5,-154 143.0381,-146.7215 143.4446,-138.6438 145.0601,-131.1411"/>
<polygon fill="#000000" stroke="#000000" points="148.4625,-131.9732 147.8567,-121.3957 141.7341,-130.0423 148.4625,-131.9732"/>
<text text-anchor="middle" x="153.75" y="-142.8" font-family="Times,serif" font-size="14.00" fill="#000000">0.4</text>
</g>
<!-- H -->
<g id="node8" class="node">
<title>H</title>
<ellipse fill="none" stroke="#000000" cx="263" cy="-104" rx="27" ry="18"/>
<text text-anchor="middle" x="263" y="-99.8" font-family="Times,serif" font-size="14.00" fill="#000000">H</text>
</g>
<!-- E&#45;&gt;H -->
<g id="edge14" class="edge">
<title>E&#45;&gt;H</title>
<path fill="none" stroke="#000000" d="M188.6768,-175.0199C202.8727,-161.4549 223.9646,-141.3005 240.0568,-125.9235"/>
<polygon fill="#000000" stroke="#000000" points="242.6909,-128.2475 247.5028,-118.8084 237.8549,-123.1865 242.6909,-128.2475"/>
<text text-anchor="middle" x="231.75" y="-142.8" font-family="Times,serif" font-size="14.00" fill="#000000">0.3</text>
</g>
<!-- F&#45;&gt;D -->
<g id="edge16" class="edge">
<title>F&#45;&gt;D</title>
<path fill="none" stroke="#000000" d="M116.8017,-36.2172C116.6113,-74.2506 117.3259,-164.8086 127,-240 127.3461,-242.6898 127.7708,-245.4811 128.2383,-248.2657"/>
<polygon fill="#000000" stroke="#000000" points="124.8014,-248.9281 130.0558,-258.1282 131.6855,-247.6594 124.8014,-248.9281"/>
<text text-anchor="middle" x="127.75" y="-142.8" font-family="Times,serif" font-size="14.00" fill="#000000">0.2</text>
</g>
<!-- F&#45;&gt;F -->
<g id="edge15" class="edge">
<title>F&#45;&gt;F</title>
<path fill="none" stroke="#000000" d="M141.5325,-25.752C152.5078,-26.4902 162,-23.9063 162,-18 162,-14.0317 157.7151,-11.5632 151.5743,-10.5944"/>
<polygon fill="#000000" stroke="#000000" points="151.6472,-7.0949 141.5325,-10.248 151.4059,-14.0908 151.6472,-7.0949"/>
<text text-anchor="middle" x="170.75" y="-13.8" font-family="Times,serif" font-size="14.00" fill="#000000">0.3</text>
</g>
<!-- F&#45;&gt;G -->
<g id="edge17" class="edge">
<title>F&#45;&gt;G</title>
<path fill="none" stroke="#000000" d="M135.2582,-31.4551C142.0653,-37.5266 149.0843,-45.2941 153,-54 155.9718,-60.6074 157.3271,-68.2098 157.8032,-75.4596"/>
<polygon fill="#000000" stroke="#000000" points="154.3068,-75.7265 157.9577,-85.6724 161.306,-75.6206 154.3068,-75.7265"/>
<text text-anchor="middle" x="164.75" y="-56.8" font-family="Times,serif" font-size="14.00" fill="#000000">0.5</text>
</g>
<!-- G&#45;&gt;E -->
<g id="edge19" class="edge">
<title>G&#45;&gt;E</title>
<path fill="none" stroke="#000000" d="M159.5418,-121.9172C161.8201,-133.443 164.8292,-148.6655 167.4242,-161.7932"/>
<polygon fill="#000000" stroke="#000000" points="164.0219,-162.6302 169.3947,-171.7616 170.889,-161.2727 164.0219,-162.6302"/>
<text text-anchor="middle" x="173.75" y="-142.8" font-family="Times,serif" font-size="14.00" fill="#000000">0.1</text>
</g>
<!-- G&#45;&gt;F -->
<g id="edge20" class="edge">
<title>G&#45;&gt;F</title>
<path fill="none" stroke="#000000" d="M143.3811,-87.8081C139.1622,-81.8298 134.7195,-74.8403 131.5,-68 128.2188,-61.0285 125.5149,-53.1554 123.3678,-45.7543"/>
<polygon fill="#000000" stroke="#000000" points="126.7465,-44.8406 120.783,-36.0835 119.9839,-46.6481 126.7465,-44.8406"/>
<text text-anchor="middle" x="139.75" y="-56.8" font-family="Times,serif" font-size="14.00" fill="#000000">0.1</text>
</g>
<!-- G&#45;&gt;G -->
<g id="edge18" class="edge">
<title>G&#45;&gt;G</title>
<path fill="none" stroke="#000000" d="M180.5325,-111.752C191.5078,-112.4902 201,-109.9063 201,-104 201,-100.0317 196.7151,-97.5632 190.5743,-96.5944"/>
<polygon fill="#000000" stroke="#000000" points="190.6472,-93.0949 180.5325,-96.248 190.4059,-100.0908 190.6472,-93.0949"/>
<text text-anchor="middle" x="209.75" y="-99.8" font-family="Times,serif" font-size="14.00" fill="#000000">0.8</text>
</g>
<!-- H&#45;&gt;A -->
<g id="edge22" class="edge">
<title>H&#45;&gt;A</title>
<path fill="none" stroke="#000000" d="M263,-122.1199C263,-139.5241 263,-166.559 263,-190 263,-362 263,-362 263,-362 263,-390.1223 240.1434,-414.0178 220.3672,-429.4297"/>
<polygon fill="#000000" stroke="#000000" points="218.1145,-426.7425 212.1558,-435.503 222.277,-432.3704 218.1145,-426.7425"/>
<text text-anchor="middle" x="271.75" y="-271.8" font-family="Times,serif" font-size="14.00" fill="#000000">0.2</text>
</g>
<!-- H&#45;&gt;H -->
<g id="edge21" class="edge">
<title>H&#45;&gt;H</title>
<path fill="none" stroke="#000000" d="M287.5325,-111.752C298.5078,-112.4902 308,-109.9063 308,-104 308,-100.0317 303.7151,-97.5632 297.5743,-96.5944"/>
<polygon fill="#000000" stroke="#000000" points="297.6472,-93.0949 287.5325,-96.248 297.4059,-100.0908 297.6472,-93.0949"/>
<text text-anchor="middle" x="316.75" y="-99.8" font-family="Times,serif" font-size="14.00" fill="#000000">0.8</text>
</g>
</g>
</svg>
